<svg xmlns="http://www.w3.org/2000/svg" width="64" height="64" viewBox="0 0 64 64">
  <defs>
    <linearGradient id="g" x1="32" y1="10" x2="32" y2="56" gradientUnits="userSpaceOnUse">
      <stop stop-color="#00E5FF"/>
      <stop offset="0.5" stop-color="#46E0B4"/>
      <stop offset="1" stop-color="#AEF73C"/>
    </linearGradient>
  </defs>
  <rect width="64" height="64" rx="14" fill="#070A0F"/>
  <g transform="translate(7 13) scale(0.25)" stroke="url(#g)" stroke-width="5" stroke-linecap="round" opacity="0.8">
    <line x1="66" y1="18" x2="51" y2="33"/><line x1="66" y1="18" x2="81" y2="33"/>
    <line x1="51" y1="33" x2="36" y2="48"/><line x1="51" y1="33" x2="66" y2="48"/>
    <line x1="81" y1="33" x2="66" y2="48"/><line x1="81" y1="33" x2="96" y2="48"/>
    <line x1="134" y1="18" x2="149" y2="33"/><line x1="134" y1="18" x2="119" y2="33"/>
    <line x1="149" y1="33" x2="164" y2="48"/><line x1="149" y1="33" x2="134" y2="48"/>
    <line x1="119" y1="33" x2="134" y2="48"/><line x1="119" y1="33" x2="104" y2="48"/>
    <line x1="81" y1="33" x2="100" y2="40"/><line x1="119" y1="33" x2="100" y2="40"/>
    <line x1="100" y1="40" x2="88" y2="56"/><line x1="100" y1="40" x2="112" y2="56"/>
    <line x1="88" y1="56" x2="100" y2="72"/><line x1="112" y1="56" x2="100" y2="72"/>
    <line x1="100" y1="72" x2="100" y2="90"/>
  </g>
  <g transform="translate(7 13) scale(0.25)" fill="url(#g)">
    <circle cx="66" cy="18" r="6"/><circle cx="51" cy="33" r="5"/><circle cx="81" cy="33" r="5"/>
    <circle cx="36" cy="48" r="4.5"/><circle cx="66" cy="48" r="5"/><circle cx="96" cy="48" r="4.5"/>
    <circle cx="134" cy="18" r="6"/><circle cx="149" cy="33" r="5"/><circle cx="119" cy="33" r="5"/>
    <circle cx="164" cy="48" r="4.5"/><circle cx="134" cy="48" r="5"/><circle cx="104" cy="48" r="4.5"/>
    <circle cx="100" cy="40" r="4"/><circle cx="88" cy="56" r="4.5"/><circle cx="112" cy="56" r="4.5"/>
    <circle cx="100" cy="72" r="5"/><circle cx="100" cy="90" r="9"/>
  </g>
</svg>
